<svg width="359" height="48" viewBox="0 0 359 48" fill="none" xmlns="http://www.w3.org/2000/svg">
<path d="M6.68 21.62L7.28 26.78L7.04 26.36C8 24.52 9.3 23.08 10.94 22.04C12.62 21 14.56 20.48 16.76 20.48C18.16 20.48 19.4 20.7 20.48 21.14C21.56 21.58 22.46 22.2 23.18 23C23.94 23.8 24.44 24.8 24.68 26L24.32 26.12C25.36 24.4 26.7 23.04 28.34 22.04C29.98 21 31.72 20.48 33.56 20.48C36.04 20.48 38.02 21.2 39.5 22.64C40.98 24.04 41.74 25.86 41.78 28.1V47H35.12V30.74C35.08 29.5 34.82 28.48 34.34 27.68C33.86 26.84 32.96 26.38 31.64 26.3C30.2 26.3 28.96 26.76 27.92 27.68C26.88 28.56 26.06 29.72 25.46 31.16C24.9 32.56 24.62 34.06 24.62 35.66V47H17.84V30.74C17.8 29.5 17.52 28.48 17 27.68C16.48 26.84 15.56 26.38 14.24 26.3C12.84 26.3 11.62 26.76 10.58 27.68C9.54 28.56 8.74 29.72 8.18 31.16C7.62 32.56 7.34 34.04 7.34 35.6V47H0.62V21.62H6.68ZM63.1306 47.66C60.1306 47.66 57.5706 47.08 55.4506 45.92C53.3306 44.76 51.7106 43.16 50.5906 41.12C49.4706 39.04 48.9106 36.7 48.9106 34.1C48.9106 31.54 49.5506 29.24 50.8306 27.2C52.1106 25.16 53.8306 23.54 55.9906 22.34C58.1906 21.1 60.6106 20.48 63.2506 20.48C66.7306 20.48 69.5906 21.5 71.8306 23.54C74.1106 25.54 75.6306 28.38 76.3906 32.06L55.9306 38.96L54.3706 35.18L70.3306 29.48L68.9506 30.26C68.5106 29.06 67.7906 28.02 66.7906 27.14C65.8306 26.26 64.4706 25.82 62.7106 25.82C61.3106 25.82 60.0706 26.16 58.9906 26.84C57.9106 27.48 57.0506 28.4 56.4106 29.6C55.8106 30.76 55.5106 32.14 55.5106 33.74C55.5106 35.38 55.8506 36.82 56.5306 38.06C57.2106 39.3 58.1306 40.26 59.2906 40.94C60.4506 41.58 61.7706 41.9 63.2506 41.9C64.2906 41.9 65.2906 41.72 66.2506 41.36C67.2106 41 68.1106 40.52 68.9506 39.92L72.0106 44.9C70.6906 45.74 69.2306 46.42 67.6306 46.94C66.0706 47.42 64.5706 47.66 63.1306 47.66ZM93.3828 47.66C90.9828 47.66 88.8428 47.1 86.9628 45.98C85.0828 44.86 83.6028 43.26 82.5228 41.18C81.4428 39.1 80.9028 36.68 80.9028 33.92C80.9028 31.08 81.4828 28.66 82.6428 26.66C83.8028 24.66 85.3828 23.14 87.3828 22.1C89.4228 21.02 91.7028 20.48 94.2228 20.48C96.0628 20.48 97.8228 20.84 99.5028 21.56C101.183 22.24 102.523 23.24 103.523 24.56L103.403 26.84V0.199998H110.063V47H103.343V41.3L104.003 42.92C102.723 44.28 101.183 45.42 99.3828 46.34C97.6228 47.22 95.6228 47.66 93.3828 47.66ZM95.5428 41.96C96.8628 41.96 98.0228 41.74 99.0228 41.3C100.063 40.86 100.943 40.24 101.663 39.44C102.423 38.6 102.983 37.62 103.343 36.5V31.1C103.023 30.06 102.483 29.14 101.723 28.34C101.003 27.54 100.103 26.92 99.0228 26.48C97.9428 26.04 96.7828 25.82 95.5428 25.82C94.1028 25.82 92.7828 26.16 91.5828 26.84C90.4228 27.52 89.4828 28.46 88.7628 29.66C88.0428 30.86 87.6828 32.24 87.6828 33.8C87.6828 35.32 88.0428 36.7 88.7628 37.94C89.4828 39.18 90.4428 40.16 91.6428 40.88C92.8428 41.6 94.1428 41.96 95.5428 41.96ZM119.331 21.62H126.051V47H119.331V21.62ZM119.031 12.56C119.031 11.52 119.431 10.66 120.231 9.98C121.071 9.3 121.971 8.96 122.931 8.96C123.891 8.96 124.751 9.3 125.511 9.98C126.311 10.66 126.711 11.52 126.711 12.56C126.711 13.6 126.311 14.46 125.511 15.14C124.751 15.78 123.891 16.1 122.931 16.1C121.971 16.1 121.071 15.76 120.231 15.08C119.431 14.4 119.031 13.56 119.031 12.56ZM145.948 47.66C143.548 47.66 141.368 47.16 139.408 46.16C137.488 45.16 135.968 43.68 134.848 41.72C133.728 39.72 133.168 37.26 133.168 34.34C133.168 31.46 133.748 29 134.908 26.96C136.108 24.88 137.668 23.28 139.588 22.16C141.548 21.04 143.668 20.48 145.948 20.48C148.388 20.48 150.348 20.96 151.828 21.92C153.348 22.88 154.528 24.02 155.368 25.34L155.008 26.3L155.668 21.62H161.848V47H155.128V40.82L155.788 42.44C155.628 42.68 155.308 43.08 154.828 43.64C154.348 44.16 153.688 44.74 152.848 45.38C152.008 46.02 151.008 46.56 149.848 47C148.728 47.44 147.428 47.66 145.948 47.66ZM147.808 42.14C149.008 42.14 150.088 41.92 151.048 41.48C152.048 41.04 152.888 40.42 153.568 39.62C154.288 38.82 154.808 37.86 155.128 36.74V31.22C154.808 30.18 154.288 29.28 153.568 28.52C152.848 27.72 151.968 27.1 150.928 26.66C149.928 26.22 148.808 26 147.568 26C146.208 26 144.948 26.34 143.788 27.02C142.628 27.7 141.688 28.64 140.968 29.84C140.288 31.04 139.948 32.42 139.948 33.98C139.948 35.5 140.308 36.88 141.028 38.12C141.748 39.36 142.708 40.34 143.908 41.06C145.108 41.78 146.408 42.14 147.808 42.14ZM173.528 10.46H180.308V21.62H186.908V26.9H180.308V47H173.528V26.9H169.208V21.62H173.528V10.46ZM199.571 21.62L200.171 28.82L199.931 27.8C200.651 26.28 201.631 24.98 202.871 23.9C204.151 22.78 205.451 21.94 206.771 21.38C208.091 20.78 209.171 20.48 210.011 20.48L209.711 27.2C207.791 27.04 206.111 27.4 204.671 28.28C203.271 29.12 202.171 30.24 201.371 31.64C200.611 33.04 200.231 34.52 200.231 36.08V47H193.511V21.62H199.571ZM226.866 47.66C224.466 47.66 222.286 47.16 220.326 46.16C218.406 45.16 216.886 43.68 215.766 41.72C214.646 39.72 214.086 37.26 214.086 34.34C214.086 31.46 214.666 29 215.826 26.96C217.026 24.88 218.586 23.28 220.506 22.16C222.466 21.04 224.586 20.48 226.866 20.48C229.306 20.48 231.266 20.96 232.746 21.92C234.266 22.88 235.446 24.02 236.286 25.34L235.926 26.3L236.586 21.62H242.766V47H236.046V40.82L236.706 42.44C236.546 42.68 236.226 43.08 235.746 43.64C235.266 44.16 234.606 44.74 233.766 45.38C232.926 46.02 231.926 46.56 230.766 47C229.646 47.44 228.346 47.66 226.866 47.66ZM228.726 42.14C229.926 42.14 231.006 41.92 231.966 41.48C232.966 41.04 233.806 40.42 234.486 39.62C235.206 38.82 235.726 37.86 236.046 36.74V31.22C235.726 30.18 235.206 29.28 234.486 28.52C233.766 27.72 232.886 27.1 231.846 26.66C230.846 26.22 229.726 26 228.486 26C227.126 26 225.866 26.34 224.706 27.02C223.546 27.7 222.606 28.64 221.886 29.84C221.206 31.04 220.866 32.42 220.866 33.98C220.866 35.5 221.226 36.88 221.946 38.12C222.666 39.36 223.626 40.34 224.826 41.06C226.026 41.78 227.326 42.14 228.726 42.14ZM273.046 44.66C271.926 45.58 270.546 46.32 268.906 46.88C267.306 47.4 265.686 47.66 264.046 47.66C261.246 47.66 258.786 47.12 256.666 46.04C254.546 44.92 252.886 43.38 251.686 41.42C250.526 39.42 249.946 37.04 249.946 34.28C249.946 31.52 250.566 29.14 251.806 27.14C253.086 25.14 254.746 23.62 256.786 22.58C258.866 21.5 261.066 20.96 263.386 20.96C265.506 20.96 267.386 21.26 269.026 21.86C270.666 22.42 272.086 23.2 273.286 24.2L269.926 28.58C269.286 28.06 268.446 27.58 267.406 27.14C266.406 26.66 265.266 26.42 263.986 26.42C262.626 26.42 261.386 26.76 260.266 27.44C259.186 28.12 258.306 29.06 257.626 30.26C256.986 31.42 256.666 32.76 256.666 34.28C256.666 35.72 257.006 37.04 257.686 38.24C258.366 39.44 259.306 40.4 260.506 41.12C261.706 41.8 263.086 42.14 264.646 42.14C265.646 42.14 266.566 42 267.406 41.72C268.286 41.4 269.046 40.98 269.686 40.46L273.046 44.66ZM279.936 47V0.199998H286.656V47H279.936ZM292.956 29.96L304.536 47H296.736L288.516 33.8L292.956 29.96ZM284.616 39.38L283.956 32.9L299.376 21.02L303.456 24.62L284.616 39.38ZM322.291 47.66C319.291 47.66 316.731 47.08 314.611 45.92C312.491 44.76 310.871 43.16 309.751 41.12C308.631 39.04 308.071 36.7 308.071 34.1C308.071 31.54 308.711 29.24 309.991 27.2C311.271 25.16 312.991 23.54 315.151 22.34C317.351 21.1 319.771 20.48 322.411 20.48C325.891 20.48 328.751 21.5 330.991 23.54C333.271 25.54 334.791 28.38 335.551 32.06L315.091 38.96L313.531 35.18L329.491 29.48L328.111 30.26C327.671 29.06 326.951 28.02 325.951 27.14C324.991 26.26 323.631 25.82 321.871 25.82C320.471 25.82 319.231 26.16 318.151 26.84C317.071 27.48 316.211 28.4 315.571 29.6C314.971 30.76 314.671 32.14 314.671 33.74C314.671 35.38 315.011 36.82 315.691 38.06C316.371 39.3 317.291 40.26 318.451 40.94C319.611 41.58 320.931 41.9 322.411 41.9C323.451 41.9 324.451 41.72 325.411 41.36C326.371 41 327.271 40.52 328.111 39.92L331.171 44.9C329.851 45.74 328.391 46.42 326.791 46.94C325.231 47.42 323.731 47.66 322.291 47.66ZM348.223 21.62L348.823 28.82L348.583 27.8C349.303 26.28 350.283 24.98 351.523 23.9C352.803 22.78 354.103 21.94 355.423 21.38C356.743 20.78 357.823 20.48 358.663 20.48L358.363 27.2C356.443 27.04 354.763 27.4 353.323 28.28C351.923 29.12 350.823 30.24 350.023 31.64C349.263 33.04 348.883 34.52 348.883 36.08V47H342.163V21.62H348.223Z" fill="white"/>
</svg>
